<svg xmlns="http://www.w3.org/2000/svg" xmlns:xlink="http://www.w3.org/1999/xlink" width="500" zoomAndPan="magnify" viewBox="0 0 375 374.999991" height="500" preserveAspectRatio="xMidYMid meet" version="1.0"><defs><g/><clipPath id="id1"><path d="M 97.601562 45.257812 L 269.351562 45.257812 L 269.351562 217.007812 L 97.601562 217.007812 Z M 97.601562 45.257812 " clip-rule="nonzero"/></clipPath></defs><rect x="-37.5" width="450" fill="#ffffff" y="-37.499999" height="449.999989" fill-opacity="1"/><rect x="-37.5" width="450" fill="#ffffff" y="-37.499999" height="449.999989" fill-opacity="1"/><rect x="-37.5" width="450" fill="#ffffff" y="-37.499999" height="449.999989" fill-opacity="1"/><rect x="-37.5" width="450" fill="#ffffff" y="-37.499999" height="449.999989" fill-opacity="1"/><g clip-path="url(#id1)"><path fill="#ffd83d" d="M 183.476562 211.285156 C 139.273438 211.285156 103.324219 175.335938 103.324219 131.132812 C 103.324219 86.933594 139.273438 50.984375 183.476562 50.984375 C 227.675781 50.984375 263.625 86.933594 263.625 131.132812 C 263.625 175.335938 227.675781 211.285156 183.476562 211.285156 Z M 183.476562 45.257812 C 136.121094 45.257812 97.601562 83.78125 97.601562 131.132812 C 97.601562 178.488281 136.121094 217.007812 183.476562 217.007812 C 230.828125 217.007812 269.351562 178.488281 269.351562 131.132812 C 269.351562 83.78125 230.828125 45.257812 183.476562 45.257812 " fill-opacity="1" fill-rule="nonzero"/></g><path fill="#ffd83d" d="M 186.335938 181.707031 L 186.335938 156.492188 L 215.96875 143.792969 Z M 150.957031 143.78125 L 180.613281 156.492188 L 180.613281 181.910156 Z M 218.640625 136.421875 L 183.429688 151.472656 L 148.308594 136.421875 C 146.464844 135.628906 144.382812 136.164062 143.152344 137.753906 C 141.921875 139.351562 141.921875 141.488281 143.164062 143.085938 L 178.867188 189 C 179.984375 190.429688 181.664062 191.246094 183.476562 191.246094 C 185.285156 191.246094 186.964844 190.429688 188.082031 189 L 223.785156 143.085938 C 225.027344 141.488281 225.027344 139.351562 223.796875 137.753906 C 222.566406 136.164062 220.484375 135.628906 218.640625 136.421875 " fill-opacity="1" fill-rule="nonzero"/><path fill="#ffd83d" d="M 180.613281 80.527344 L 180.613281 108.234375 L 150.625 118.957031 Z M 186.335938 108.234375 L 186.335938 80.378906 L 216.304688 118.945312 Z M 186.335938 114.304688 L 216.785156 125.195312 L 186.335938 138.210938 Z M 180.613281 138.234375 L 150.289062 125.152344 L 180.613281 114.304688 Z M 224.542969 120.175781 L 188.046875 73.257812 C 185.84375 70.417969 181.105469 70.417969 178.902344 73.257812 L 142.40625 120.175781 C 141.285156 121.617188 140.90625 123.441406 141.363281 125.195312 C 141.824219 126.953125 143.03125 128.359375 144.695312 129.078125 L 181.183594 144.707031 C 181.910156 145.03125 182.691406 145.1875 183.476562 145.1875 C 184.257812 145.1875 185.027344 145.03125 185.753906 144.71875 L 222.253906 129.078125 C 223.917969 128.359375 225.125 126.953125 225.585938 125.195312 C 226.042969 123.441406 225.664062 121.617188 224.542969 120.175781 " fill-opacity="1" fill-rule="nonzero"/><path fill="#ffd83d" d="M 177.984375 62.65625 C 181.585938 62.355469 185.363281 62.355469 188.964844 62.65625 C 189.054688 62.65625 189.121094 62.65625 189.199219 62.65625 C 190.6875 62.65625 191.9375 61.527344 192.050781 60.03125 C 192.175781 58.453125 191 57.066406 189.433594 56.945312 C 185.519531 56.628906 181.429688 56.628906 177.515625 56.945312 C 175.949219 57.066406 174.777344 58.453125 174.898438 60.03125 C 175.019531 61.605469 176.375 62.734375 177.984375 62.65625 " fill-opacity="1" fill-rule="nonzero"/><path fill="#ffd83d" d="M 142.851562 75.078125 C 143.410156 75.078125 143.980469 74.914062 144.472656 74.578125 C 145.992188 73.535156 147.558594 72.542969 149.125 71.636719 C 150.710938 70.71875 152.355469 69.859375 154 69.074219 C 155.421875 68.40625 156.023438 66.695312 155.351562 65.261719 C 154.671875 63.832031 152.972656 63.238281 151.539062 63.910156 C 149.761719 64.75 147.984375 65.6875 146.261719 66.683594 C 144.5625 67.65625 142.875 68.730469 141.21875 69.859375 C 139.921875 70.753906 139.597656 72.542969 140.492188 73.839844 C 141.039062 74.644531 141.933594 75.078125 142.851562 75.078125 " fill-opacity="1" fill-rule="nonzero"/><path fill="#ffd83d" d="M 122.199219 88.878906 C 121.070312 90.53125 119.996094 92.222656 119.023438 93.921875 C 118.027344 95.644531 117.089844 97.421875 116.25 99.199219 C 115.570312 100.617188 116.171875 102.328125 117.605469 103.011719 C 117.996094 103.191406 118.421875 103.292969 118.832031 103.292969 C 119.90625 103.292969 120.925781 102.6875 121.417969 101.660156 C 122.199219 100.015625 123.058594 98.371094 123.976562 96.785156 C 124.882812 95.21875 125.867188 93.652344 126.917969 92.132812 C 127.8125 90.824219 127.488281 89.046875 126.179688 88.152344 C 124.882812 87.257812 123.09375 87.582031 122.199219 88.878906 " fill-opacity="1" fill-rule="nonzero"/><path fill="#ffd83d" d="M 112.371094 122.558594 C 110.75 122.433594 109.40625 123.597656 109.285156 125.171875 C 109.128906 127.128906 109.050781 129.144531 109.050781 131.132812 C 109.050781 133.125 109.128906 135.136719 109.285156 137.09375 C 109.40625 138.582031 110.660156 139.722656 112.136719 139.722656 C 112.214844 139.722656 112.292969 139.722656 112.371094 139.710938 C 113.9375 139.585938 115.121094 138.199219 114.988281 136.625 C 114.84375 134.824219 114.773438 132.980469 114.773438 131.132812 C 114.773438 129.289062 114.84375 127.445312 114.988281 125.644531 C 115.121094 124.066406 113.9375 122.679688 112.371094 122.558594 " fill-opacity="1" fill-rule="nonzero"/><path fill="#ffd83d" d="M 123.976562 165.484375 C 123.058594 163.894531 122.199219 162.253906 121.417969 160.609375 C 120.734375 159.1875 119.035156 158.585938 117.605469 159.253906 C 116.171875 159.9375 115.570312 161.648438 116.25 163.070312 C 117.089844 164.847656 118.027344 166.625 119.023438 168.347656 C 119.996094 170.046875 121.070312 171.734375 122.199219 173.390625 C 122.757812 174.183594 123.652344 174.617188 124.558594 174.617188 C 125.117188 174.617188 125.6875 174.460938 126.179688 174.117188 C 127.488281 173.222656 127.8125 171.445312 126.917969 170.136719 C 125.867188 168.613281 124.882812 167.050781 123.976562 165.484375 " fill-opacity="1" fill-rule="nonzero"/><path fill="#ffd83d" d="M 154 193.191406 C 152.355469 192.410156 150.710938 191.546875 149.125 190.632812 C 147.558594 189.726562 145.992188 188.742188 144.472656 187.691406 C 143.164062 186.796875 141.386719 187.132812 140.492188 188.429688 C 139.597656 189.726562 139.921875 191.515625 141.21875 192.410156 C 142.875 193.539062 144.5625 194.613281 146.261719 195.585938 C 147.984375 196.578125 149.761719 197.519531 151.539062 198.359375 C 151.929688 198.546875 152.355469 198.636719 152.757812 198.636719 C 153.832031 198.636719 154.859375 198.035156 155.351562 197.003906 C 156.023438 195.574219 155.421875 193.875 154 193.191406 " fill-opacity="1" fill-rule="nonzero"/><path fill="#ffd83d" d="M 188.964844 199.621094 C 185.363281 199.902344 181.585938 199.902344 177.984375 199.621094 C 176.386719 199.519531 175.019531 200.671875 174.898438 202.238281 C 174.777344 203.8125 175.949219 205.199219 177.515625 205.324219 C 179.472656 205.480469 181.484375 205.558594 183.476562 205.558594 C 185.464844 205.558594 187.476562 205.480469 189.433594 205.324219 C 191 205.199219 192.175781 203.8125 192.050781 202.238281 C 191.929688 200.671875 190.597656 199.507812 188.964844 199.621094 " fill-opacity="1" fill-rule="nonzero"/><path fill="#ffd83d" d="M 222.476562 187.691406 C 220.957031 188.742188 219.390625 189.726562 217.824219 190.632812 C 216.238281 191.546875 214.59375 192.410156 212.949219 193.191406 C 211.53125 193.875 210.925781 195.574219 211.597656 197.003906 C 212.089844 198.035156 213.117188 198.636719 214.191406 198.636719 C 214.59375 198.636719 215.019531 198.546875 215.410156 198.359375 C 217.1875 197.519531 218.964844 196.578125 220.6875 195.585938 C 222.386719 194.613281 224.074219 193.539062 225.730469 192.410156 C 227.027344 191.515625 227.351562 189.726562 226.457031 188.429688 C 225.5625 187.132812 223.785156 186.796875 222.476562 187.691406 " fill-opacity="1" fill-rule="nonzero"/><path fill="#ffd83d" d="M 249.347656 159.253906 C 247.914062 158.585938 246.214844 159.1875 245.53125 160.609375 C 244.75 162.253906 243.890625 163.894531 242.972656 165.484375 C 242.066406 167.050781 241.070312 168.613281 240.03125 170.136719 C 239.136719 171.445312 239.460938 173.222656 240.769531 174.117188 C 241.261719 174.460938 241.832031 174.617188 242.390625 174.617188 C 243.296875 174.617188 244.191406 174.183594 244.75 173.390625 C 245.878906 171.734375 246.953125 170.046875 247.925781 168.347656 C 248.921875 166.625 249.859375 164.847656 250.699219 163.070312 C 251.378906 161.648438 250.777344 159.9375 249.347656 159.253906 " fill-opacity="1" fill-rule="nonzero"/><path fill="#ffd83d" d="M 254.578125 139.710938 C 254.65625 139.722656 254.734375 139.722656 254.8125 139.722656 C 256.289062 139.722656 257.542969 138.582031 257.664062 137.09375 C 257.820312 135.136719 257.898438 133.125 257.898438 131.132812 C 257.898438 129.144531 257.820312 127.128906 257.664062 125.171875 C 257.542969 123.597656 256.222656 122.433594 254.578125 122.558594 C 253.003906 122.679688 251.828125 124.066406 251.949219 125.644531 C 252.097656 127.445312 252.175781 129.289062 252.175781 131.132812 C 252.175781 132.980469 252.097656 134.824219 251.949219 136.625 C 251.828125 138.199219 253.003906 139.585938 254.578125 139.710938 " fill-opacity="1" fill-rule="nonzero"/><path fill="#ffd83d" d="M 240.03125 92.132812 C 241.070312 93.652344 242.066406 95.21875 242.972656 96.785156 C 243.890625 98.371094 244.75 100.015625 245.53125 101.660156 C 246.023438 102.6875 247.054688 103.292969 248.117188 103.292969 C 248.53125 103.292969 248.941406 103.191406 249.347656 103.011719 C 250.777344 102.328125 251.378906 100.617188 250.699219 99.199219 C 249.859375 97.421875 248.921875 95.644531 247.925781 93.921875 C 246.953125 92.222656 245.878906 90.53125 244.75 88.878906 C 243.855469 87.582031 242.078125 87.257812 240.769531 88.152344 C 239.460938 89.046875 239.136719 90.824219 240.03125 92.132812 " fill-opacity="1" fill-rule="nonzero"/><path fill="#ffd83d" d="M 220.6875 66.683594 C 218.964844 65.6875 217.1875 64.75 215.410156 63.910156 C 213.976562 63.238281 212.277344 63.832031 211.597656 65.261719 C 210.925781 66.695312 211.53125 68.40625 212.949219 69.074219 C 214.59375 69.859375 216.238281 70.71875 217.824219 71.636719 C 219.390625 72.542969 220.957031 73.535156 222.476562 74.578125 C 222.96875 74.914062 223.539062 75.078125 224.097656 75.078125 C 225.015625 75.078125 225.910156 74.644531 226.457031 73.839844 C 227.351562 72.542969 227.027344 70.753906 225.730469 69.859375 C 224.074219 68.730469 222.386719 67.65625 220.6875 66.683594 " fill-opacity="1" fill-rule="nonzero"/><g fill="#ffd83d" fill-opacity="1"><g transform="translate(33.502094, 282.477636)"><g><path d="M 9.28125 -6.589844 L 21.160156 -6.589844 C 21.710938 -6.589844 21.960938 -6.289062 21.960938 -5.789062 L 21.960938 -0.796875 C 21.960938 -0.25 21.710938 0 21.160156 0 L 3.292969 0 C 2.796875 0 2.496094 -0.25 2.496094 -0.796875 L 2.496094 -39.128906 C 2.496094 -39.628906 2.796875 -39.925781 3.292969 -39.925781 L 8.484375 -39.925781 C 9.035156 -39.925781 9.28125 -39.628906 9.28125 -39.128906 Z M 9.28125 -6.589844 "/></g></g></g><g fill="#ffd83d" fill-opacity="1"><g transform="translate(69.136203, 282.477636)"><g><path d="M 2.496094 -7.1875 C 2.496094 -2.496094 4.992188 0 9.683594 0 L 15.273438 0 C 19.964844 0 22.460938 -2.496094 22.460938 -7.1875 L 22.460938 -32.742188 C 22.460938 -37.433594 19.964844 -39.925781 15.273438 -39.925781 L 9.683594 -39.925781 C 4.992188 -39.925781 2.496094 -37.433594 2.496094 -32.742188 Z M 11.128906 -6.4375 C 9.832031 -6.4375 9.132812 -7.085938 9.132812 -8.433594 L 9.132812 -31.492188 C 9.132812 -32.789062 9.832031 -33.488281 11.128906 -33.488281 L 14.023438 -33.488281 C 15.320312 -33.488281 16.019531 -32.789062 16.019531 -31.492188 L 16.019531 -8.433594 C 16.019531 -7.085938 15.320312 -6.4375 14.023438 -6.4375 Z M 11.128906 -6.4375 "/></g></g></g><g fill="#ffd83d" fill-opacity="1"><g transform="translate(105.269345, 282.477636)"><g><path d="M 2.296875 -39.925781 C 1.796875 -39.925781 1.496094 -39.628906 1.496094 -39.128906 L 1.496094 -34.136719 C 1.496094 -33.640625 1.796875 -33.339844 2.296875 -33.339844 L 8.085938 -33.339844 L 8.085938 -0.796875 C 8.085938 -0.25 8.386719 0 8.882812 0 L 14.074219 0 C 14.625 0 14.875 -0.25 14.875 -0.796875 L 14.875 -33.339844 L 20.664062 -33.339844 C 21.210938 -33.339844 21.460938 -33.640625 21.460938 -34.136719 L 21.460938 -39.128906 C 21.460938 -39.628906 21.210938 -39.925781 20.664062 -39.925781 Z M 2.296875 -39.925781 "/></g></g></g><g fill="#ffd83d" fill-opacity="1"><g transform="translate(139.40635, 282.477636)"><g><path d="M 2.296875 -39.925781 C 1.796875 -39.925781 1.496094 -39.628906 1.496094 -39.128906 L 1.496094 -34.136719 C 1.496094 -33.640625 1.796875 -33.339844 2.296875 -33.339844 L 8.085938 -33.339844 L 8.085938 -0.796875 C 8.085938 -0.25 8.386719 0 8.882812 0 L 14.074219 0 C 14.625 0 14.875 -0.25 14.875 -0.796875 L 14.875 -33.339844 L 20.664062 -33.339844 C 21.210938 -33.339844 21.460938 -33.640625 21.460938 -34.136719 L 21.460938 -39.128906 C 21.460938 -39.628906 21.210938 -39.925781 20.664062 -39.925781 Z M 2.296875 -39.925781 "/></g></g></g><g fill="#ffd83d" fill-opacity="1"><g transform="translate(173.543361, 282.477636)"><g><path d="M 22.410156 -39.128906 C 22.410156 -39.628906 22.210938 -39.925781 21.609375 -39.925781 L 3.242188 -39.925781 C 2.796875 -39.925781 2.496094 -39.628906 2.496094 -39.128906 L 2.496094 -0.796875 C 2.496094 -0.300781 2.796875 0 3.242188 0 L 21.609375 0 C 22.210938 0 22.410156 -0.300781 22.410156 -0.796875 L 22.410156 -5.789062 C 22.410156 -6.339844 22.210938 -6.589844 21.609375 -6.589844 L 9.132812 -6.589844 L 9.132812 -16.667969 L 18.667969 -16.667969 C 19.164062 -16.667969 19.464844 -16.96875 19.464844 -17.519531 L 19.464844 -22.460938 C 19.464844 -23.007812 19.164062 -23.308594 18.667969 -23.308594 L 9.132812 -23.308594 L 9.132812 -33.289062 L 21.609375 -33.289062 C 22.210938 -33.289062 22.410156 -33.640625 22.410156 -34.136719 Z M 22.410156 -39.128906 "/></g></g></g><g fill="#ffd83d" fill-opacity="1"><g transform="translate(209.626605, 282.477636)"><g><path d="M 23.007812 -32.742188 C 23.007812 -37.433594 20.511719 -39.925781 15.820312 -39.925781 L 3.292969 -39.925781 C 2.796875 -39.925781 2.496094 -39.628906 2.496094 -39.128906 L 2.496094 -0.796875 C 2.496094 -0.300781 2.796875 0 3.292969 0 L 8.484375 0 C 8.984375 0 9.28125 -0.300781 9.28125 -0.796875 L 9.28125 -13.375 L 12.726562 -13.375 L 16.070312 -0.699219 C 16.171875 -0.25 16.421875 0 16.917969 0 L 22.109375 0 C 22.660156 0 22.957031 -0.300781 22.808594 -0.898438 L 19.363281 -13.976562 C 21.761719 -15.023438 23.007812 -17.21875 23.007812 -20.5625 Z M 9.28125 -19.964844 L 9.28125 -33.339844 L 14.222656 -33.339844 C 15.523438 -33.339844 16.21875 -32.640625 16.21875 -31.34375 L 16.21875 -21.960938 C 16.21875 -20.664062 15.523438 -19.964844 14.222656 -19.964844 Z M 9.28125 -19.964844 "/></g></g></g><g fill="#ffd83d" fill-opacity="1"><g transform="translate(246.308685, 282.477636)"><g><path d="M 22.410156 -39.128906 C 22.410156 -39.628906 22.210938 -39.925781 21.609375 -39.925781 L 3.242188 -39.925781 C 2.796875 -39.925781 2.496094 -39.628906 2.496094 -39.128906 L 2.496094 -0.796875 C 2.496094 -0.300781 2.796875 0 3.242188 0 L 21.609375 0 C 22.210938 0 22.410156 -0.300781 22.410156 -0.796875 L 22.410156 -5.789062 C 22.410156 -6.339844 22.210938 -6.589844 21.609375 -6.589844 L 9.132812 -6.589844 L 9.132812 -16.667969 L 18.667969 -16.667969 C 19.164062 -16.667969 19.464844 -16.96875 19.464844 -17.519531 L 19.464844 -22.460938 C 19.464844 -23.007812 19.164062 -23.308594 18.667969 -23.308594 L 9.132812 -23.308594 L 9.132812 -33.289062 L 21.609375 -33.289062 C 22.210938 -33.289062 22.410156 -33.640625 22.410156 -34.136719 Z M 22.410156 -39.128906 "/></g></g></g><g fill="#ffd83d" fill-opacity="1"><g transform="translate(282.39193, 282.477636)"><g><path d="M 2.296875 -39.925781 C 1.796875 -39.925781 1.496094 -39.628906 1.496094 -39.128906 L 1.496094 -34.136719 C 1.496094 -33.640625 1.796875 -33.339844 2.296875 -33.339844 L 8.085938 -33.339844 L 8.085938 -0.796875 C 8.085938 -0.25 8.386719 0 8.882812 0 L 14.074219 0 C 14.625 0 14.875 -0.25 14.875 -0.796875 L 14.875 -33.339844 L 20.664062 -33.339844 C 21.210938 -33.339844 21.460938 -33.640625 21.460938 -34.136719 L 21.460938 -39.128906 C 21.460938 -39.628906 21.210938 -39.925781 20.664062 -39.925781 Z M 2.296875 -39.925781 "/></g></g></g><g fill="#ffd83d" fill-opacity="1"><g transform="translate(316.528941, 282.477636)"><g><path d="M 15.671875 -23.257812 L 9.28125 -23.257812 L 9.28125 -39.128906 C 9.28125 -39.628906 8.984375 -39.925781 8.484375 -39.925781 L 3.34375 -39.925781 C 2.746094 -39.925781 2.496094 -39.628906 2.496094 -39.128906 L 2.496094 -0.796875 C 2.496094 -0.300781 2.746094 0 3.34375 0 L 8.484375 0 C 8.984375 0 9.28125 -0.300781 9.28125 -0.796875 L 9.28125 -16.667969 L 15.671875 -16.667969 L 15.671875 -0.796875 C 15.671875 -0.300781 15.972656 0 16.46875 0 L 21.609375 0 C 22.210938 0 22.460938 -0.300781 22.460938 -0.796875 L 22.460938 -39.128906 C 22.460938 -39.628906 22.210938 -39.925781 21.609375 -39.925781 L 16.46875 -39.925781 C 15.972656 -39.925781 15.671875 -39.628906 15.671875 -39.128906 Z M 15.671875 -23.257812 "/></g></g></g></svg>