<svg xmlns="http://www.w3.org/2000/svg" xmlns:xlink="http://www.w3.org/1999/xlink" width="1000" zoomAndPan="magnify" viewBox="0 0 375 374.999991" height="1000" preserveAspectRatio="xMidYMid meet" version="1.0"><defs><g/><clipPath id="id1"><path d="M 302.15625 158.621094 L 359.90625 158.621094 L 359.90625 216.371094 L 302.15625 216.371094 Z M 302.15625 158.621094 " clip-rule="nonzero"/></clipPath></defs><rect x="-37.5" width="450" fill="#ffffff" y="-37.499999" height="449.999989" fill-opacity="1"/><rect x="-37.5" width="450" fill="#ffffff" y="-37.499999" height="449.999989" fill-opacity="1"/><rect x="-37.5" width="450" fill="#ffffff" y="-37.499999" height="449.999989" fill-opacity="1"/><g clip-path="url(#id1)"><path fill="#ffd83d" d="M 331.03125 214.445312 C 316.167969 214.445312 304.082031 202.359375 304.082031 187.496094 C 304.082031 172.632812 316.167969 160.546875 331.03125 160.546875 C 345.890625 160.546875 357.980469 172.632812 357.980469 187.496094 C 357.980469 202.359375 345.890625 214.445312 331.03125 214.445312 Z M 331.03125 158.621094 C 315.109375 158.621094 302.15625 171.574219 302.15625 187.496094 C 302.15625 203.417969 315.109375 216.371094 331.03125 216.371094 C 346.953125 216.371094 359.90625 203.417969 359.90625 187.496094 C 359.90625 171.574219 346.953125 158.621094 331.03125 158.621094 " fill-opacity="1" fill-rule="nonzero"/></g><path fill="#ffd83d" d="M 331.992188 204.5 L 331.992188 196.023438 L 341.957031 191.75 Z M 320.097656 191.746094 L 330.066406 196.023438 L 330.066406 204.570312 Z M 342.855469 189.273438 L 331.015625 194.335938 L 319.207031 189.273438 C 318.585938 189.007812 317.886719 189.1875 317.472656 189.722656 C 317.058594 190.257812 317.058594 190.976562 317.476562 191.515625 L 329.480469 206.953125 C 329.855469 207.433594 330.421875 207.707031 331.03125 207.707031 C 331.640625 207.707031 332.203125 207.433594 332.578125 206.953125 L 344.585938 191.515625 C 345 190.976562 345 190.257812 344.585938 189.722656 C 344.175781 189.1875 343.476562 189.007812 342.855469 189.273438 " fill-opacity="1" fill-rule="nonzero"/><path fill="#ffd83d" d="M 330.066406 170.480469 L 330.066406 179.796875 L 319.984375 183.402344 Z M 331.992188 179.796875 L 331.992188 170.429688 L 342.070312 183.398438 Z M 331.992188 181.835938 L 342.230469 185.5 L 331.992188 189.875 Z M 330.066406 189.882812 L 319.871094 185.484375 L 330.066406 181.835938 Z M 344.839844 183.8125 L 332.566406 168.035156 C 331.828125 167.082031 330.234375 167.082031 329.492188 168.035156 L 317.21875 183.8125 C 316.84375 184.296875 316.714844 184.910156 316.871094 185.5 C 317.023438 186.089844 317.429688 186.5625 317.992188 186.804688 L 330.257812 192.058594 C 330.503906 192.167969 330.765625 192.222656 331.03125 192.222656 C 331.292969 192.222656 331.554688 192.167969 331.796875 192.0625 L 344.070312 186.804688 C 344.628906 186.5625 345.035156 186.089844 345.1875 185.5 C 345.34375 184.910156 345.214844 184.296875 344.839844 183.8125 " fill-opacity="1" fill-rule="nonzero"/><path fill="#ffd83d" d="M 329.183594 164.472656 C 330.394531 164.371094 331.664062 164.371094 332.875 164.472656 C 332.90625 164.472656 332.929688 164.472656 332.957031 164.472656 C 333.457031 164.472656 333.875 164.089844 333.914062 163.585938 C 333.957031 163.058594 333.558594 162.589844 333.035156 162.550781 C 331.71875 162.445312 330.34375 162.445312 329.027344 162.550781 C 328.5 162.589844 328.105469 163.058594 328.144531 163.585938 C 328.1875 164.117188 328.644531 164.496094 329.183594 164.472656 " fill-opacity="1" fill-rule="nonzero"/><path fill="#ffd83d" d="M 317.371094 168.648438 C 317.558594 168.648438 317.75 168.589844 317.917969 168.480469 C 318.425781 168.128906 318.953125 167.792969 319.480469 167.488281 C 320.015625 167.183594 320.566406 166.890625 321.121094 166.628906 C 321.597656 166.402344 321.800781 165.828125 321.574219 165.347656 C 321.34375 164.867188 320.773438 164.667969 320.292969 164.890625 C 319.695312 165.175781 319.097656 165.488281 318.519531 165.824219 C 317.945312 166.152344 317.378906 166.511719 316.820312 166.890625 C 316.386719 167.191406 316.277344 167.792969 316.578125 168.230469 C 316.761719 168.5 317.0625 168.648438 317.371094 168.648438 " fill-opacity="1" fill-rule="nonzero"/><path fill="#ffd83d" d="M 310.425781 173.289062 C 310.046875 173.84375 309.6875 174.410156 309.359375 174.984375 C 309.023438 175.5625 308.707031 176.160156 308.425781 176.757812 C 308.195312 177.234375 308.398438 177.8125 308.882812 178.039062 C 309.011719 178.101562 309.15625 178.132812 309.296875 178.132812 C 309.65625 178.132812 309.996094 177.929688 310.164062 177.585938 C 310.425781 177.03125 310.714844 176.480469 311.023438 175.945312 C 311.328125 175.417969 311.660156 174.894531 312.011719 174.382812 C 312.3125 173.941406 312.203125 173.34375 311.765625 173.042969 C 311.328125 172.742188 310.726562 172.851562 310.425781 173.289062 " fill-opacity="1" fill-rule="nonzero"/><path fill="#ffd83d" d="M 307.121094 184.613281 C 306.578125 184.570312 306.125 184.960938 306.085938 185.492188 C 306.03125 186.148438 306.003906 186.828125 306.003906 187.496094 C 306.003906 188.164062 306.03125 188.839844 306.085938 189.5 C 306.125 190 306.546875 190.382812 307.042969 190.382812 C 307.070312 190.382812 307.09375 190.382812 307.121094 190.378906 C 307.648438 190.339844 308.046875 189.871094 308 189.339844 C 307.953125 188.738281 307.929688 188.117188 307.929688 187.496094 C 307.929688 186.875 307.953125 186.253906 308 185.648438 C 308.046875 185.121094 307.648438 184.652344 307.121094 184.613281 " fill-opacity="1" fill-rule="nonzero"/><path fill="#ffd83d" d="M 311.023438 199.046875 C 310.714844 198.511719 310.425781 197.960938 310.164062 197.40625 C 309.933594 196.929688 309.363281 196.726562 308.882812 196.953125 C 308.398438 197.179688 308.195312 197.757812 308.425781 198.234375 C 308.707031 198.832031 309.023438 199.429688 309.359375 200.007812 C 309.6875 200.578125 310.046875 201.148438 310.425781 201.703125 C 310.613281 201.972656 310.914062 202.117188 311.21875 202.117188 C 311.40625 202.117188 311.601562 202.066406 311.765625 201.949219 C 312.203125 201.648438 312.3125 201.050781 312.011719 200.609375 C 311.660156 200.097656 311.328125 199.570312 311.023438 199.046875 " fill-opacity="1" fill-rule="nonzero"/><path fill="#ffd83d" d="M 321.121094 208.363281 C 320.566406 208.097656 320.015625 207.808594 319.480469 207.5 C 318.953125 207.195312 318.425781 206.867188 317.917969 206.511719 C 317.476562 206.210938 316.878906 206.324219 316.578125 206.761719 C 316.277344 207.195312 316.386719 207.796875 316.820312 208.097656 C 317.378906 208.480469 317.945312 208.839844 318.519531 209.167969 C 319.097656 209.5 319.695312 209.816406 320.292969 210.097656 C 320.425781 210.164062 320.566406 210.195312 320.703125 210.195312 C 321.0625 210.195312 321.410156 209.992188 321.574219 209.644531 C 321.800781 209.164062 321.597656 208.589844 321.121094 208.363281 " fill-opacity="1" fill-rule="nonzero"/><path fill="#ffd83d" d="M 332.875 210.523438 C 331.664062 210.617188 330.394531 210.617188 329.183594 210.523438 C 328.644531 210.492188 328.1875 210.878906 328.144531 211.402344 C 328.105469 211.933594 328.5 212.402344 329.027344 212.441406 C 329.683594 212.496094 330.359375 212.519531 331.03125 212.519531 C 331.699219 212.519531 332.375 212.496094 333.035156 212.441406 C 333.558594 212.402344 333.957031 211.933594 333.914062 211.402344 C 333.871094 210.878906 333.425781 210.488281 332.875 210.523438 " fill-opacity="1" fill-rule="nonzero"/><path fill="#ffd83d" d="M 344.144531 206.511719 C 343.632812 206.867188 343.105469 207.195312 342.582031 207.5 C 342.046875 207.808594 341.492188 208.097656 340.941406 208.363281 C 340.464844 208.589844 340.261719 209.164062 340.484375 209.644531 C 340.652344 209.992188 340.996094 210.195312 341.359375 210.195312 C 341.492188 210.195312 341.636719 210.164062 341.769531 210.097656 C 342.367188 209.816406 342.964844 209.5 343.542969 209.167969 C 344.113281 208.839844 344.683594 208.480469 345.238281 208.097656 C 345.675781 207.796875 345.785156 207.195312 345.484375 206.761719 C 345.183594 206.324219 344.585938 206.210938 344.144531 206.511719 " fill-opacity="1" fill-rule="nonzero"/><path fill="#ffd83d" d="M 353.179688 196.953125 C 352.699219 196.726562 352.125 196.929688 351.898438 197.40625 C 351.632812 197.960938 351.34375 198.511719 351.035156 199.046875 C 350.730469 199.570312 350.398438 200.097656 350.046875 200.609375 C 349.746094 201.050781 349.855469 201.648438 350.296875 201.949219 C 350.460938 202.066406 350.652344 202.117188 350.839844 202.117188 C 351.144531 202.117188 351.445312 201.972656 351.632812 201.703125 C 352.011719 201.148438 352.375 200.578125 352.703125 200.007812 C 353.035156 199.429688 353.351562 198.832031 353.632812 198.234375 C 353.863281 197.757812 353.660156 197.179688 353.179688 196.953125 " fill-opacity="1" fill-rule="nonzero"/><path fill="#ffd83d" d="M 354.9375 190.378906 C 354.964844 190.382812 354.992188 190.382812 355.015625 190.382812 C 355.515625 190.382812 355.933594 190 355.976562 189.5 C 356.027344 188.839844 356.054688 188.164062 356.054688 187.496094 C 356.054688 186.828125 356.027344 186.148438 355.976562 185.492188 C 355.933594 184.960938 355.492188 184.570312 354.9375 184.613281 C 354.410156 184.652344 354.011719 185.121094 354.054688 185.648438 C 354.105469 186.253906 354.128906 186.875 354.128906 187.496094 C 354.128906 188.117188 354.105469 188.738281 354.054688 189.339844 C 354.011719 189.871094 354.410156 190.339844 354.9375 190.378906 " fill-opacity="1" fill-rule="nonzero"/><path fill="#ffd83d" d="M 350.046875 174.382812 C 350.398438 174.894531 350.730469 175.417969 351.035156 175.945312 C 351.34375 176.480469 351.632812 177.03125 351.898438 177.585938 C 352.0625 177.929688 352.40625 178.132812 352.765625 178.132812 C 352.90625 178.132812 353.042969 178.101562 353.179688 178.039062 C 353.660156 177.8125 353.863281 177.234375 353.632812 176.757812 C 353.351562 176.160156 353.035156 175.5625 352.703125 174.984375 C 352.375 174.410156 352.011719 173.84375 351.632812 173.289062 C 351.332031 172.851562 350.734375 172.742188 350.296875 173.042969 C 349.855469 173.34375 349.746094 173.941406 350.046875 174.382812 " fill-opacity="1" fill-rule="nonzero"/><path fill="#ffd83d" d="M 343.542969 165.824219 C 342.964844 165.488281 342.367188 165.175781 341.769531 164.890625 C 341.285156 164.667969 340.714844 164.867188 340.484375 165.347656 C 340.261719 165.828125 340.464844 166.402344 340.941406 166.628906 C 341.492188 166.890625 342.046875 167.183594 342.582031 167.488281 C 343.105469 167.792969 343.632812 168.128906 344.144531 168.480469 C 344.308594 168.589844 344.5 168.648438 344.6875 168.648438 C 344.996094 168.648438 345.296875 168.5 345.484375 168.230469 C 345.785156 167.792969 345.675781 167.191406 345.238281 166.890625 C 344.683594 166.511719 344.113281 166.152344 343.542969 165.824219 " fill-opacity="1" fill-rule="nonzero"/><g fill="#ffd83d" fill-opacity="1"><g transform="translate(15.047331, 207.435222)"><g><path d="M 8.472656 -6.011719 L 19.316406 -6.011719 C 19.816406 -6.011719 20.042969 -5.738281 20.042969 -5.285156 L 20.042969 -0.730469 C 20.042969 -0.226562 19.816406 0 19.316406 0 L 3.007812 0 C 2.550781 0 2.277344 -0.226562 2.277344 -0.730469 L 2.277344 -35.714844 C 2.277344 -36.171875 2.550781 -36.445312 3.007812 -36.445312 L 7.746094 -36.445312 C 8.246094 -36.445312 8.472656 -36.171875 8.472656 -35.714844 Z M 8.472656 -6.011719 "/></g></g></g><g fill="#ffd83d" fill-opacity="1"><g transform="translate(47.572488, 207.435222)"><g><path d="M 2.277344 -6.558594 C 2.277344 -2.277344 4.554688 0 8.835938 0 L 13.941406 0 C 18.222656 0 20.5 -2.277344 20.5 -6.558594 L 20.5 -29.882812 C 20.5 -34.167969 18.222656 -36.445312 13.941406 -36.445312 L 8.835938 -36.445312 C 4.554688 -36.445312 2.277344 -34.167969 2.277344 -29.882812 Z M 10.160156 -5.875 C 8.972656 -5.875 8.335938 -6.46875 8.335938 -7.699219 L 8.335938 -28.746094 C 8.335938 -29.929688 8.972656 -30.566406 10.160156 -30.566406 L 12.800781 -30.566406 C 13.984375 -30.566406 14.625 -29.929688 14.625 -28.746094 L 14.625 -7.699219 C 14.625 -6.46875 13.984375 -5.875 12.800781 -5.875 Z M 10.160156 -5.875 "/></g></g></g><g fill="#ffd83d" fill-opacity="1"><g transform="translate(80.553154, 207.435222)"><g><path d="M 2.09375 -36.445312 C 1.640625 -36.445312 1.367188 -36.171875 1.367188 -35.714844 L 1.367188 -31.160156 C 1.367188 -30.703125 1.640625 -30.429688 2.09375 -30.429688 L 7.378906 -30.429688 L 7.378906 -0.730469 C 7.378906 -0.226562 7.652344 0 8.109375 0 L 12.847656 0 C 13.347656 0 13.574219 -0.226562 13.574219 -0.730469 L 13.574219 -30.429688 L 18.859375 -30.429688 C 19.359375 -30.429688 19.589844 -30.703125 19.589844 -31.160156 L 19.589844 -35.714844 C 19.589844 -36.171875 19.359375 -36.445312 18.859375 -36.445312 Z M 2.09375 -36.445312 "/></g></g></g><g fill="#ffd83d" fill-opacity="1"><g transform="translate(111.71178, 207.435222)"><g><path d="M 2.09375 -36.445312 C 1.640625 -36.445312 1.367188 -36.171875 1.367188 -35.714844 L 1.367188 -31.160156 C 1.367188 -30.703125 1.640625 -30.429688 2.09375 -30.429688 L 7.378906 -30.429688 L 7.378906 -0.730469 C 7.378906 -0.226562 7.652344 0 8.109375 0 L 12.847656 0 C 13.347656 0 13.574219 -0.226562 13.574219 -0.730469 L 13.574219 -30.429688 L 18.859375 -30.429688 C 19.359375 -30.429688 19.589844 -30.703125 19.589844 -31.160156 L 19.589844 -35.714844 C 19.589844 -36.171875 19.359375 -36.445312 18.859375 -36.445312 Z M 2.09375 -36.445312 "/></g></g></g><g fill="#ffd83d" fill-opacity="1"><g transform="translate(142.870413, 207.435222)"><g><path d="M 20.453125 -35.714844 C 20.453125 -36.171875 20.273438 -36.445312 19.726562 -36.445312 L 2.960938 -36.445312 C 2.550781 -36.445312 2.277344 -36.171875 2.277344 -35.714844 L 2.277344 -0.730469 C 2.277344 -0.273438 2.550781 0 2.960938 0 L 19.726562 0 C 20.273438 0 20.453125 -0.273438 20.453125 -0.730469 L 20.453125 -5.285156 C 20.453125 -5.785156 20.273438 -6.011719 19.726562 -6.011719 L 8.335938 -6.011719 L 8.335938 -15.214844 L 17.039062 -15.214844 C 17.492188 -15.214844 17.765625 -15.488281 17.765625 -15.988281 L 17.765625 -20.5 C 17.765625 -21 17.492188 -21.273438 17.039062 -21.273438 L 8.335938 -21.273438 L 8.335938 -30.386719 L 19.726562 -30.386719 C 20.273438 -30.386719 20.453125 -30.703125 20.453125 -31.160156 Z M 20.453125 -35.714844 "/></g></g></g><g fill="#ffd83d" fill-opacity="1"><g transform="translate(175.805523, 207.435222)"><g><path d="M 21 -29.882812 C 21 -34.167969 18.722656 -36.445312 14.441406 -36.445312 L 3.007812 -36.445312 C 2.550781 -36.445312 2.277344 -36.171875 2.277344 -35.714844 L 2.277344 -0.730469 C 2.277344 -0.273438 2.550781 0 3.007812 0 L 7.746094 0 C 8.199219 0 8.472656 -0.273438 8.472656 -0.730469 L 8.472656 -12.207031 L 11.617188 -12.207031 L 14.667969 -0.636719 C 14.761719 -0.226562 14.988281 0 15.441406 0 L 20.179688 0 C 20.683594 0 20.957031 -0.273438 20.820312 -0.820312 L 17.675781 -12.753906 C 19.863281 -13.710938 21 -15.714844 21 -18.769531 Z M 8.472656 -18.222656 L 8.472656 -30.429688 L 12.984375 -30.429688 C 14.167969 -30.429688 14.804688 -29.792969 14.804688 -28.609375 L 14.804688 -20.042969 C 14.804688 -18.859375 14.167969 -18.222656 12.984375 -18.222656 Z M 8.472656 -18.222656 "/></g></g></g><g fill="#ffd83d" fill-opacity="1"><g transform="translate(209.287248, 207.435222)"><g><path d="M 20.453125 -35.714844 C 20.453125 -36.171875 20.273438 -36.445312 19.726562 -36.445312 L 2.960938 -36.445312 C 2.550781 -36.445312 2.277344 -36.171875 2.277344 -35.714844 L 2.277344 -0.730469 C 2.277344 -0.273438 2.550781 0 2.960938 0 L 19.726562 0 C 20.273438 0 20.453125 -0.273438 20.453125 -0.730469 L 20.453125 -5.285156 C 20.453125 -5.785156 20.273438 -6.011719 19.726562 -6.011719 L 8.335938 -6.011719 L 8.335938 -15.214844 L 17.039062 -15.214844 C 17.492188 -15.214844 17.765625 -15.488281 17.765625 -15.988281 L 17.765625 -20.5 C 17.765625 -21 17.492188 -21.273438 17.039062 -21.273438 L 8.335938 -21.273438 L 8.335938 -30.386719 L 19.726562 -30.386719 C 20.273438 -30.386719 20.453125 -30.703125 20.453125 -31.160156 Z M 20.453125 -35.714844 "/></g></g></g><g fill="#ffd83d" fill-opacity="1"><g transform="translate(242.222358, 207.435222)"><g><path d="M 2.09375 -36.445312 C 1.640625 -36.445312 1.367188 -36.171875 1.367188 -35.714844 L 1.367188 -31.160156 C 1.367188 -30.703125 1.640625 -30.429688 2.09375 -30.429688 L 7.378906 -30.429688 L 7.378906 -0.730469 C 7.378906 -0.226562 7.652344 0 8.109375 0 L 12.847656 0 C 13.347656 0 13.574219 -0.226562 13.574219 -0.730469 L 13.574219 -30.429688 L 18.859375 -30.429688 C 19.359375 -30.429688 19.589844 -30.703125 19.589844 -31.160156 L 19.589844 -35.714844 C 19.589844 -36.171875 19.359375 -36.445312 18.859375 -36.445312 Z M 2.09375 -36.445312 "/></g></g></g><g fill="#ffd83d" fill-opacity="1"><g transform="translate(273.380978, 207.435222)"><g><path d="M 14.304688 -21.230469 L 8.472656 -21.230469 L 8.472656 -35.714844 C 8.472656 -36.171875 8.199219 -36.445312 7.746094 -36.445312 L 3.050781 -36.445312 C 2.503906 -36.445312 2.277344 -36.171875 2.277344 -35.714844 L 2.277344 -0.730469 C 2.277344 -0.273438 2.503906 0 3.050781 0 L 7.746094 0 C 8.199219 0 8.472656 -0.273438 8.472656 -0.730469 L 8.472656 -15.214844 L 14.304688 -15.214844 L 14.304688 -0.730469 C 14.304688 -0.273438 14.578125 0 15.03125 0 L 19.726562 0 C 20.273438 0 20.5 -0.273438 20.5 -0.730469 L 20.5 -35.714844 C 20.5 -36.171875 20.273438 -36.445312 19.726562 -36.445312 L 15.03125 -36.445312 C 14.578125 -36.445312 14.304688 -36.171875 14.304688 -35.714844 Z M 14.304688 -21.230469 "/></g></g></g></svg>