<svg xmlns="http://www.w3.org/2000/svg" xmlns:xlink="http://www.w3.org/1999/xlink" width="500" zoomAndPan="magnify" viewBox="0 0 375 374.999991" height="500" preserveAspectRatio="xMidYMid meet" version="1.0"><defs><clipPath id="id1"><path d="M 7.542969 7.542969 L 367.542969 7.542969 L 367.542969 367.542969 L 7.542969 367.542969 Z M 7.542969 7.542969 " clip-rule="nonzero"/></clipPath></defs><g clip-path="url(#id1)"><path fill="#000000" d="M 187.542969 355.542969 C 94.894531 355.542969 19.542969 280.191406 19.542969 187.542969 C 19.542969 94.894531 94.894531 19.542969 187.542969 19.542969 C 280.191406 19.542969 355.542969 94.894531 355.542969 187.542969 C 355.542969 280.191406 280.191406 355.542969 187.542969 355.542969 Z M 187.542969 7.542969 C 88.285156 7.542969 7.542969 88.285156 7.542969 187.542969 C 7.542969 286.800781 88.285156 367.542969 187.542969 367.542969 C 286.800781 367.542969 367.542969 286.800781 367.542969 187.542969 C 367.542969 88.285156 286.800781 7.542969 187.542969 7.542969 " fill-opacity="1" fill-rule="nonzero"/></g><path fill="#000000" d="M 193.542969 293.550781 L 193.542969 240.699219 L 255.652344 214.074219 Z M 119.386719 214.050781 L 181.542969 240.699219 L 181.542969 293.972656 Z M 261.253906 198.628906 L 187.449219 230.175781 L 113.832031 198.628906 C 109.964844 196.964844 105.605469 198.089844 103.027344 201.417969 C 100.449219 204.769531 100.449219 209.246094 103.050781 212.597656 L 177.886719 308.832031 C 180.230469 311.832031 183.746094 313.542969 187.542969 313.542969 C 191.339844 313.542969 194.855469 311.832031 197.199219 308.832031 L 272.035156 212.597656 C 274.636719 209.246094 274.636719 204.769531 272.058594 201.417969 C 269.480469 198.089844 265.121094 196.964844 261.253906 198.628906 " fill-opacity="1" fill-rule="nonzero"/><path fill="#000000" d="M 181.542969 81.464844 L 181.542969 139.542969 L 118.683594 162.019531 Z M 193.542969 139.542969 L 193.542969 81.160156 L 256.355469 161.996094 Z M 193.542969 152.269531 L 257.363281 175.097656 L 193.542969 202.378906 Z M 181.542969 202.425781 L 117.980469 175.003906 L 181.542969 152.269531 Z M 273.628906 164.574219 L 197.128906 66.230469 C 192.511719 60.277344 182.574219 60.277344 177.957031 66.230469 L 101.457031 164.574219 C 99.113281 167.597656 98.316406 171.417969 99.277344 175.097656 C 100.238281 178.777344 102.769531 181.730469 106.261719 183.230469 L 182.738281 215.996094 C 184.261719 216.675781 185.902344 217.003906 187.542969 217.003906 C 189.183594 217.003906 190.800781 216.675781 192.324219 216.019531 L 268.824219 183.230469 C 272.316406 181.730469 274.847656 178.777344 275.808594 175.097656 C 276.769531 171.417969 275.972656 167.597656 273.628906 164.574219 " fill-opacity="1" fill-rule="nonzero"/><path fill="#000000" d="M 176.035156 44.011719 C 183.582031 43.378906 191.503906 43.378906 199.050781 44.011719 C 199.238281 44.011719 199.378906 44.011719 199.542969 44.011719 C 202.660156 44.011719 205.285156 41.644531 205.519531 38.503906 C 205.777344 35.199219 203.316406 32.292969 200.035156 32.035156 C 191.832031 31.378906 183.253906 31.378906 175.050781 32.035156 C 171.769531 32.292969 169.308594 35.199219 169.566406 38.503906 C 169.824219 41.808594 172.660156 44.175781 176.035156 44.011719 " fill-opacity="1" fill-rule="nonzero"/><path fill="#000000" d="M 102.394531 70.050781 C 103.566406 70.050781 104.761719 69.699219 105.792969 68.996094 C 108.980469 66.816406 112.261719 64.730469 115.542969 62.832031 C 118.871094 60.910156 122.316406 59.105469 125.761719 57.464844 C 128.738281 56.058594 130.003906 52.472656 128.597656 49.472656 C 127.167969 46.472656 123.605469 45.230469 120.605469 46.636719 C 116.878906 48.394531 113.152344 50.363281 109.542969 52.449219 C 105.980469 54.488281 102.441406 56.738281 98.972656 59.105469 C 96.253906 60.980469 95.574219 64.730469 97.449219 67.449219 C 98.597656 69.136719 100.472656 70.050781 102.394531 70.050781 " fill-opacity="1" fill-rule="nonzero"/><path fill="#000000" d="M 59.105469 98.972656 C 56.738281 102.441406 54.488281 105.980469 52.449219 109.542969 C 50.363281 113.152344 48.394531 116.878906 46.636719 120.605469 C 45.207031 123.582031 46.472656 127.167969 49.472656 128.597656 C 50.292969 128.972656 51.183594 129.183594 52.050781 129.183594 C 54.300781 129.183594 56.433594 127.917969 57.464844 125.761719 C 59.105469 122.316406 60.910156 118.871094 62.832031 115.542969 C 64.730469 112.261719 66.792969 108.980469 68.996094 105.792969 C 70.871094 103.050781 70.191406 99.324219 67.449219 97.449219 C 64.730469 95.574219 60.980469 96.253906 59.105469 98.972656 " fill-opacity="1" fill-rule="nonzero"/><path fill="#000000" d="M 38.503906 169.566406 C 35.105469 169.308594 32.292969 171.746094 32.035156 175.050781 C 31.707031 179.152344 31.542969 183.371094 31.542969 187.542969 C 31.542969 191.714844 31.707031 195.933594 32.035156 200.035156 C 32.292969 203.152344 34.917969 205.542969 38.011719 205.542969 C 38.175781 205.542969 38.339844 205.542969 38.503906 205.519531 C 41.785156 205.261719 44.269531 202.355469 43.988281 199.050781 C 43.683594 195.277344 43.542969 191.410156 43.542969 187.542969 C 43.542969 183.675781 43.683594 179.808594 43.988281 176.035156 C 44.269531 172.730469 41.785156 169.824219 38.503906 169.566406 " fill-opacity="1" fill-rule="nonzero"/><path fill="#000000" d="M 62.832031 259.542969 C 60.910156 256.214844 59.105469 252.769531 57.464844 249.324219 C 56.035156 246.347656 52.472656 245.082031 49.472656 246.488281 C 46.472656 247.917969 45.207031 251.503906 46.636719 254.480469 C 48.394531 258.207031 50.363281 261.933594 52.449219 265.542969 C 54.488281 269.105469 56.738281 272.644531 59.105469 276.113281 C 60.277344 277.777344 62.152344 278.691406 64.050781 278.691406 C 65.222656 278.691406 66.417969 278.363281 67.449219 277.636719 C 70.191406 275.761719 70.871094 272.035156 68.996094 269.292969 C 66.792969 266.105469 64.730469 262.824219 62.832031 259.542969 " fill-opacity="1" fill-rule="nonzero"/><path fill="#000000" d="M 125.761719 317.621094 C 122.316406 315.980469 118.871094 314.175781 115.542969 312.253906 C 112.261719 310.355469 108.980469 308.292969 105.792969 306.089844 C 103.050781 304.214844 99.324219 304.917969 97.449219 307.636719 C 95.574219 310.355469 96.253906 314.105469 98.972656 315.980469 C 102.441406 318.347656 105.980469 320.597656 109.542969 322.636719 C 113.152344 324.722656 116.878906 326.691406 120.605469 328.449219 C 121.425781 328.847656 122.316406 329.035156 123.160156 329.035156 C 125.410156 329.035156 127.566406 327.769531 128.597656 325.613281 C 130.003906 322.613281 128.738281 319.050781 125.761719 317.621094 " fill-opacity="1" fill-rule="nonzero"/><path fill="#000000" d="M 199.050781 331.097656 C 191.503906 331.683594 183.582031 331.683594 176.035156 331.097656 C 172.683594 330.886719 169.824219 333.300781 169.566406 336.582031 C 169.308594 339.886719 171.769531 342.792969 175.050781 343.050781 C 179.152344 343.378906 183.371094 343.542969 187.542969 343.542969 C 191.714844 343.542969 195.933594 343.378906 200.035156 343.050781 C 203.316406 342.792969 205.777344 339.886719 205.519531 336.582031 C 205.261719 333.300781 202.472656 330.863281 199.050781 331.097656 " fill-opacity="1" fill-rule="nonzero"/><path fill="#000000" d="M 269.292969 306.089844 C 266.105469 308.292969 262.824219 310.355469 259.542969 312.253906 C 256.214844 314.175781 252.769531 315.980469 249.324219 317.621094 C 246.347656 319.050781 245.082031 322.613281 246.488281 325.613281 C 247.519531 327.769531 249.675781 329.035156 251.925781 329.035156 C 252.769531 329.035156 253.660156 328.847656 254.480469 328.449219 C 258.207031 326.691406 261.933594 324.722656 265.542969 322.636719 C 269.105469 320.597656 272.644531 318.347656 276.113281 315.980469 C 278.832031 314.105469 279.511719 310.355469 277.636719 307.636719 C 275.761719 304.917969 272.035156 304.214844 269.292969 306.089844 " fill-opacity="1" fill-rule="nonzero"/><path fill="#000000" d="M 325.613281 246.488281 C 322.613281 245.082031 319.050781 246.347656 317.621094 249.324219 C 315.980469 252.769531 314.175781 256.214844 312.253906 259.542969 C 310.355469 262.824219 308.269531 266.105469 306.089844 269.292969 C 304.214844 272.035156 304.894531 275.761719 307.636719 277.636719 C 308.667969 278.363281 309.863281 278.691406 311.035156 278.691406 C 312.933594 278.691406 314.808594 277.777344 315.980469 276.113281 C 318.347656 272.644531 320.597656 269.105469 322.636719 265.542969 C 324.722656 261.933594 326.691406 258.207031 328.449219 254.480469 C 329.878906 251.503906 328.613281 247.917969 325.613281 246.488281 " fill-opacity="1" fill-rule="nonzero"/><path fill="#000000" d="M 336.582031 205.519531 C 336.746094 205.542969 336.910156 205.542969 337.074219 205.542969 C 340.167969 205.542969 342.792969 203.152344 343.050781 200.035156 C 343.378906 195.933594 343.542969 191.714844 343.542969 187.542969 C 343.542969 183.371094 343.378906 179.152344 343.050781 175.050781 C 342.792969 171.746094 340.027344 169.308594 336.582031 169.566406 C 333.277344 169.824219 330.816406 172.730469 331.074219 176.035156 C 331.378906 179.808594 331.542969 183.675781 331.542969 187.542969 C 331.542969 191.410156 331.378906 195.277344 331.074219 199.050781 C 330.816406 202.355469 333.277344 205.261719 336.582031 205.519531 " fill-opacity="1" fill-rule="nonzero"/><path fill="#000000" d="M 306.089844 105.792969 C 308.269531 108.980469 310.355469 112.261719 312.253906 115.542969 C 314.175781 118.871094 315.980469 122.316406 317.621094 125.761719 C 318.652344 127.917969 320.808594 129.183594 323.035156 129.183594 C 323.902344 129.183594 324.769531 128.972656 325.613281 128.597656 C 328.613281 127.167969 329.878906 123.582031 328.449219 120.605469 C 326.691406 116.878906 324.722656 113.152344 322.636719 109.542969 C 320.597656 105.980469 318.347656 102.441406 315.980469 98.972656 C 314.105469 96.253906 310.378906 95.574219 307.636719 97.449219 C 304.894531 99.324219 304.214844 103.050781 306.089844 105.792969 " fill-opacity="1" fill-rule="nonzero"/><path fill="#000000" d="M 265.542969 52.449219 C 261.933594 50.363281 258.207031 48.394531 254.480469 46.636719 C 251.480469 45.230469 247.917969 46.472656 246.488281 49.472656 C 245.082031 52.472656 246.347656 56.058594 249.324219 57.464844 C 252.769531 59.105469 256.214844 60.910156 259.542969 62.832031 C 262.824219 64.730469 266.105469 66.816406 269.292969 68.996094 C 270.324219 69.699219 271.519531 70.050781 272.691406 70.050781 C 274.613281 70.050781 276.488281 69.136719 277.636719 67.449219 C 279.511719 64.730469 278.832031 60.980469 276.113281 59.105469 C 272.644531 56.738281 269.105469 54.488281 265.542969 52.449219 " fill-opacity="1" fill-rule="nonzero"/></svg>